<svg width="242" height="186" viewBox="0 0 242 186" fill="none" xmlns="http://www.w3.org/2000/svg">
<path d="M79.3885 94.4214C57.6852 96.5795 46.5705 110.322 67.0705 115.021C85.5451 119.256 85.8375 108.778 79.3885 94.4214ZM79.3885 94.4214C81.0914 94.2521 82.8595 94.1541 84.6826 94.1374C92.1064 94.0692 108 94.2071 118.99 105.593C123.692 110.464 127.667 116.501 130.32 122.187M79.3885 94.4214C77.0027 89.1102 73.6942 83.2682 70.0423 77.4441C49.3821 44.4948 23.3999 36.9999 23.3999 36.9999M130.32 122.187C136.038 134.436 135.627 145.054 123.161 138.866C110.417 132.54 117.337 124.408 130.32 122.187ZM130.32 122.187C133.263 121.683 136.518 121.483 139.926 121.677C158.972 122.759 182.889 135.613 189.398 143.063" stroke="#EC8D52" stroke-width="3" stroke-dasharray="8 8"/>
<path d="M204.065 162.643C203.963 163.994 202.574 164.855 201.318 164.345L184.641 157.572C182.884 156.858 183.014 154.328 184.835 153.798L192 151.714C192.766 151.491 193.592 151.745 194.101 152.36L198.611 157.82L195.145 152.165C194.634 151.331 194.8 150.251 195.538 149.61L202.05 143.948C203.399 142.775 205.492 143.826 205.357 145.609L204.065 162.643Z" fill="#ADEB43"/>
</svg>
