<svg width="205" height="96" viewBox="0 0 205 96" fill="none" xmlns="http://www.w3.org/2000/svg">
<path d="M1 2C1 2 28 3.5 55.5 31C73.5 49 86.9652 68.2911 60.9995 68.2911C38.3176 68.2911 49.1264 49.8232 73.5 44C105.543 36.3446 143 44 176.5 68.2911" stroke="#EC8D52" stroke-width="3" stroke-dasharray="8 8"/>
<path d="M194.058 81.8353C194.26 83.1755 193.099 84.3243 191.761 84.1078L173.992 81.2324C172.12 80.9295 171.681 78.4344 173.338 77.5112L179.856 73.8783C180.553 73.4896 181.415 73.5529 182.048 74.0391L187.664 78.3527L183.022 73.6149C182.338 72.9169 182.259 71.827 182.834 71.0373L187.917 64.0632C188.97 62.6186 191.244 63.1754 191.511 64.943L194.058 81.8353Z" fill="#ADEB43"/>
</svg>
