<svg width="26" height="27" viewBox="0 0 26 27" fill="none" xmlns="http://www.w3.org/2000/svg">
<path d="M19.0306 13.7877C19.2876 13.0933 19.1149 12.3132 18.8391 11.6261C18.7164 11.32 18.2944 10.8638 18.0088 11.1231C18.0072 11.1244 18.0054 11.1259 18.0039 11.1275C17.4375 11.6247 17.0606 12.2069 16.5367 12.787C14.2752 13.1166 12.2191 13.343 10.0304 13.5157C11.077 12.2314 12.0831 10.9932 13.2633 9.55637C13.4647 9.3108 14.2663 8.12304 12.7515 6.6081C11.2032 5.05997 11.466 5.17554 10.0405 4.058C8.7563 3.051 8.20776 2.85624 7.1074 3.58287C6.66923 2.8639 5.99863 1.84864 5.39516 1.4556C4.8739 1.11587 4.25596 0.845136 3.6434 0.954836C3.10233 1.05187 2.64686 1.439 2.35366 1.9036C2.06046 2.3682 1.90916 2.90687 1.78606 3.44254C1.36813 5.25914 1.2151 7.00064 1.11733 8.8265C1.0462 8.89574 0.973964 8.96614 0.900831 9.03747C0.730631 9.20347 0.308798 9.72374 0.278898 9.95977C0.233265 10.3194 0.481098 10.7069 0.744298 10.9566C2.7467 12.8579 4.17563 14.1764 6.1782 16.0776C6.46926 16.3541 6.8223 16.6513 7.21916 16.5912C7.53873 16.5426 7.7733 16.2756 7.97833 16.0258C8.08796 15.8923 8.19616 15.7603 8.30313 15.63C11.2475 14.9048 13.7042 14.2574 16.6776 13.5276C17.1845 13.7502 17.8876 13.9828 18.4433 14.1517C18.498 14.1797 18.5572 14.1956 18.6196 14.1921C18.8231 14.1814 18.9599 13.9788 19.0306 13.7877ZM5.78993 4.6083C3.98976 6.11914 2.9231 7.0866 1.6441 8.31687C1.72043 6.75174 1.88256 5.7896 2.19323 4.23974C2.25623 3.92487 2.4781 2.9055 2.7288 2.3951C2.87046 2.10664 3.6198 0.996169 4.89133 1.6992C5.3665 1.96217 6.20053 3.11367 6.65153 3.91007C6.39703 4.10454 6.11333 4.33704 5.78993 4.6083Z" fill="#FECA7A"/>
<path d="M18.2974 14.0949C18.2668 14.0949 18.2366 14.081 18.217 14.0545C17.9866 13.7441 17.8534 13.3287 17.8318 12.8533C17.8272 12.7521 17.8204 12.6537 17.8138 12.5586C17.8006 12.3665 17.7881 12.185 17.792 11.9828C17.796 11.7818 17.8024 11.451 17.8984 11.2616C17.9234 11.2123 17.9836 11.1926 18.0328 11.2176C18.0821 11.2426 18.1018 11.3028 18.0768 11.352C18.0015 11.5006 17.9953 11.8146 17.9921 11.9833C17.9882 12.1801 18.0004 12.3573 18.0134 12.5449C18.02 12.6411 18.0268 12.7406 18.0316 12.8442C18.0513 13.2796 18.171 13.657 18.3776 13.9353C18.4105 13.9797 18.4012 14.0423 18.3569 14.0752C18.339 14.0885 18.3181 14.0949 18.2974 14.0949Z" fill="#3D4659"/>
<path d="M18.2528 11.858C18.2281 11.858 18.2033 11.8489 18.184 11.8306L18.1779 11.8248C18.138 11.7866 18.1367 11.7233 18.1749 11.6834C18.213 11.6435 18.2763 11.6421 18.3163 11.6803L18.3217 11.6855C18.3618 11.7235 18.3634 11.7868 18.3254 11.8269C18.3057 11.8476 18.2793 11.858 18.2528 11.858Z" fill="#3D4659"/>
<path d="M18.7154 12.0013C18.691 12.0013 18.6666 11.9925 18.6475 11.9747C18.6073 11.9368 18.6042 11.8747 18.6421 11.8345L18.6452 11.8312C18.6831 11.7909 18.7475 11.7878 18.7877 11.8256C18.828 11.8635 18.831 11.9256 18.7932 11.9658L18.79 11.9691C18.7701 11.9904 18.7427 12.0013 18.7154 12.0013Z" fill="#3D4659"/>
<path d="M18.3653 12.5541C18.3404 12.5541 18.3155 12.5449 18.2961 12.5263L18.2904 12.5209C18.2505 12.4827 18.2491 12.4194 18.2873 12.3795C18.3255 12.3396 18.3888 12.3382 18.4287 12.3764L18.4345 12.3819C18.4744 12.4201 18.4757 12.4834 18.4375 12.5232C18.4179 12.5438 18.3916 12.5541 18.3653 12.5541Z" fill="#3D4659"/>
<path d="M18.453 13.3794C18.4284 13.3794 18.4038 13.3704 18.3845 13.3522L18.3781 13.3462C18.3382 13.308 18.3368 13.2447 18.375 13.2048C18.4132 13.1649 18.4765 13.1635 18.5164 13.2017L18.5215 13.2065C18.5617 13.2444 18.5637 13.3076 18.5258 13.3479C18.5062 13.3688 18.4796 13.3794 18.453 13.3794Z" fill="#3D4659"/>
<path d="M18.8871 12.8541C18.8623 12.8541 18.8374 12.8449 18.818 12.8264L18.8123 12.8209C18.7724 12.7827 18.771 12.7194 18.8092 12.6796C18.8474 12.6396 18.9107 12.6383 18.9506 12.6765L18.9563 12.6819C18.9962 12.7201 18.9976 12.7834 18.9594 12.8233C18.9398 12.8438 18.9135 12.8541 18.8871 12.8541Z" fill="#3D4659"/>
<path d="M18.8823 13.5731C18.8574 13.5731 18.8325 13.5639 18.8131 13.5453L18.8074 13.5399C18.7675 13.5017 18.7662 13.4384 18.8044 13.3985C18.8425 13.3586 18.9058 13.3572 18.9458 13.3954L18.9515 13.4009C18.9914 13.4391 18.9927 13.5024 18.9545 13.5422C18.9349 13.5628 18.9086 13.5731 18.8823 13.5731Z" fill="#3D4659"/>
<path d="M18.6211 13.9538C18.5962 13.9538 18.5713 13.9446 18.552 13.9261L18.5486 13.9229L18.6154 13.8484L18.6842 13.7759L18.6902 13.7816C18.7301 13.8198 18.7315 13.8831 18.6933 13.923C18.6737 13.9435 18.6474 13.9538 18.6211 13.9538Z" fill="#3D4659"/>
<path d="M21.8093 15.9467C21.8294 15.7965 21.8628 15.3429 21.8628 15.3429C22.0342 15.5499 22.1744 15.7827 22.2774 16.031C22.3176 16.128 22.3526 16.2306 22.3465 16.3355C22.3404 16.4403 22.2843 16.5482 22.1872 16.5881C22.047 16.6457 21.8833 16.5363 21.8263 16.3958C21.7693 16.2554 21.7892 16.097 21.8093 15.9467Z" fill="#A3D6FF"/>
<path d="M20.4127 15.4888C20.3452 15.359 20.1312 15.086 20.0284 14.9819C19.9939 15.1455 19.9595 15.309 19.925 15.4726C19.9012 15.5858 19.8773 15.7019 19.8944 15.8163C19.9115 15.9307 19.9787 16.0449 20.0872 16.0849C20.2245 16.1355 20.3863 16.045 20.4463 15.9116C20.5062 15.7781 20.4801 15.6187 20.4127 15.4888Z" fill="#A3D6FF"/>
<path d="M20.4752 13.9453C20.4417 13.782 20.5039 13.5403 20.4919 13.2935C20.7005 13.4065 20.8876 13.5184 21.0371 13.7026C21.1117 13.7946 21.1586 13.9766 21.1491 14.0948C21.1356 14.2609 20.9331 14.3653 20.7737 14.3166C20.6142 14.2678 20.5086 14.1086 20.4752 13.9453Z" fill="#A3D6FF"/>
<path d="M20.7639 18.3129C20.7492 18.1933 20.7023 18.0801 20.6508 17.9711C20.5912 17.8447 20.4827 17.681 20.4099 17.5617C20.2774 17.7637 20.1833 18.0227 20.1528 18.2623C20.1401 18.362 20.1371 18.4655 20.1685 18.561C20.1999 18.6565 20.2705 18.7435 20.3666 18.7732C20.4818 18.8088 20.6127 18.7529 20.6855 18.6567C20.7582 18.5606 20.7787 18.4325 20.7639 18.3129Z" fill="#A3D6FF"/>
<path d="M22.0399 18.1326C21.9577 18.4056 21.8964 18.6848 21.8568 18.9671C21.8385 19.0969 21.8352 19.253 21.9402 19.3315C22.036 19.403 22.183 19.3651 22.2608 19.2743C22.3386 19.1835 22.3593 19.0564 22.3553 18.9369C22.3485 18.7318 22.1644 18.2958 22.0399 18.1326Z" fill="#A3D6FF"/>
<path d="M24.9004 26.3941C23.8696 26.007 23.2057 25.6936 22.1749 25.3065C21.7717 25.1551 21.3724 25.0005 20.9431 25.0782C20.7797 25.1078 20.5556 25.1544 20.4061 25.2198C19.3606 25.6765 18.0524 26.3484 16.9067 26.5424C19.8239 26.9226 22.6422 26.9102 25.371 26.5424C25.1834 26.4841 25.0688 26.4573 24.9004 26.3941Z" fill="#F2AB5A"/>
<path d="M21.1412 23.5294C21.1832 23.0484 21.2755 22.6253 21.4472 22.1741C21.7928 21.2656 22.4704 20.4552 23.3745 20.0983C23.809 19.9268 24.3122 19.8671 24.738 20.0592C25.1639 20.2513 25.4696 20.7451 25.3416 21.1945C25.1641 21.8178 24.3849 21.9834 23.7613 22.1602C23.0234 22.3695 21.6013 22.6932 21.1412 23.5294Z" fill="#6AAC96"/>
<path d="M21.1685 23.2317C21.1685 21.8612 20.4744 20.5233 19.5529 20.1874C19.3564 20.1158 19.1438 20.0773 18.937 20.1085C18.5666 20.1644 18.2442 20.4609 18.1577 20.8254C18.0711 21.1898 18.2272 21.5975 18.5314 21.8161C18.9797 22.1381 20.7806 22.3212 21.1685 23.2317Z" fill="#6AAC96"/>
<path d="M21.192 23.3617C21.1501 23.3617 21.1111 23.3352 21.0971 23.2933C20.8458 22.5394 20.3843 21.9236 19.8308 21.6039C19.783 21.5762 19.7666 21.5151 19.7943 21.4672C19.8219 21.4194 19.883 21.403 19.9309 21.4307C20.5261 21.7745 21.0203 22.4303 21.2869 23.23C21.3043 23.2824 21.276 23.339 21.2236 23.3565C21.2131 23.36 21.2025 23.3617 21.192 23.3617Z" fill="#3D4659"/>
<path d="M21.1572 25.149C21.1065 25.149 21.0631 25.1107 21.0578 25.0592C21.0056 24.5453 20.9998 23.9989 21.0415 23.5207C21.1596 22.5099 22.2873 21.4434 23.2666 21.0798C23.3185 21.0605 23.3759 21.087 23.3952 21.1387C23.4144 21.1905 23.388 21.248 23.3362 21.2673C22.1919 21.6922 21.3287 22.786 21.2405 23.541C21.2001 24.0042 21.2057 24.5372 21.2568 25.0389C21.2624 25.0939 21.2224 25.143 21.1674 25.1485C21.164 25.1489 21.1606 25.149 21.1572 25.149Z" fill="#3D4659"/>
</svg>
