<svg width="30" height="30" viewBox="0 0 30 30" fill="none" xmlns="http://www.w3.org/2000/svg">
<path d="M15 22.5C19.1421 22.5 22.5 19.1421 22.5 15C22.5 10.8579 19.1421 7.5 15 7.5C10.8579 7.5 7.5 10.8579 7.5 15C7.5 19.1421 10.8579 22.5 15 22.5Z" fill="#FFD36B"/>
<path d="M15 5.5C14.8674 5.5 14.7402 5.44732 14.6464 5.35355C14.5527 5.25979 14.5 5.13261 14.5 5V0.5C14.5 0.367392 14.5527 0.240215 14.6464 0.146447C14.7402 0.0526784 14.8674 0 15 0C15.1326 0 15.2598 0.0526784 15.3536 0.146447C15.4473 0.240215 15.5 0.367392 15.5 0.5V5C15.5 5.13261 15.4473 5.25979 15.3536 5.35355C15.2598 5.44732 15.1326 5.5 15 5.5Z" fill="#FFD36B"/>
<path d="M7.9287 8.42895C7.86303 8.42903 7.79799 8.41613 7.73732 8.39099C7.67666 8.36585 7.62156 8.32896 7.5752 8.28245L5.4541 6.16115C5.4067 6.11494 5.36896 6.05978 5.34304 5.99887C5.31713 5.93796 5.30357 5.87251 5.30315 5.80631C5.30274 5.74012 5.31546 5.6745 5.3406 5.61327C5.36574 5.55203 5.40278 5.4964 5.44959 5.44959C5.4964 5.40278 5.55203 5.36574 5.61327 5.3406C5.6745 5.31546 5.74012 5.30274 5.80631 5.30315C5.87251 5.30357 5.93796 5.31713 5.99887 5.34304C6.05978 5.36896 6.11494 5.4067 6.16115 5.4541L8.28225 7.57545C8.35216 7.64538 8.39976 7.73447 8.41904 7.83145C8.43833 7.92843 8.42842 8.02895 8.39058 8.1203C8.35274 8.21165 8.28866 8.28973 8.20645 8.34467C8.12423 8.39961 8.02758 8.42894 7.9287 8.42895Z" fill="#FFD36B"/>
<path d="M5 15.5H0.5C0.367392 15.5 0.240215 15.4473 0.146447 15.3536C0.0526784 15.2598 0 15.1326 0 15C0 14.8674 0.0526784 14.7402 0.146447 14.6464C0.240215 14.5527 0.367392 14.5 0.5 14.5H5C5.13261 14.5 5.25979 14.5527 5.35355 14.6464C5.44732 14.7402 5.5 14.8674 5.5 15C5.5 15.1326 5.44732 15.2598 5.35355 15.3536C5.25979 15.4473 5.13261 15.5 5 15.5Z" fill="#FFD36B"/>
<path d="M5.8076 24.6924C5.70871 24.6924 5.61205 24.6631 5.52984 24.6081C5.44762 24.5532 5.38354 24.4751 5.34571 24.3837C5.30787 24.2924 5.29797 24.1918 5.31727 24.0948C5.33656 23.9979 5.38418 23.9088 5.4541 23.8389L7.575 21.7176C7.62116 21.67 7.67633 21.632 7.73729 21.606C7.79825 21.5799 7.86378 21.5662 7.93008 21.5657C7.99638 21.5652 8.06212 21.5779 8.12347 21.603C8.18482 21.6281 8.24056 21.6652 8.28744 21.7121C8.33433 21.759 8.37142 21.8147 8.39656 21.8761C8.4217 21.9374 8.43439 22.0032 8.43389 22.0695C8.43339 22.1358 8.4197 22.2013 8.39364 22.2623C8.36757 22.3232 8.32964 22.3784 8.28205 22.4245L6.16095 24.5459C6.1146 24.5924 6.05953 24.6293 5.99889 24.6544C5.93825 24.6795 5.87324 24.6925 5.8076 24.6924Z" fill="#FFD36B"/>
<path d="M15 30C14.8674 30 14.7402 29.9473 14.6464 29.8536C14.5527 29.7598 14.5 29.6326 14.5 29.5V25C14.5 24.8674 14.5527 24.7402 14.6464 24.6464C14.7402 24.5527 14.8674 24.5 15 24.5C15.1326 24.5 15.2598 24.5527 15.3536 24.6464C15.4473 24.7402 15.5 24.8674 15.5 25V29.5C15.5 29.6326 15.4473 29.7598 15.3536 29.8536C15.2598 29.9473 15.1326 30 15 30Z" fill="#FFD36B"/>
<path d="M24.1924 24.6924C24.1267 24.6925 24.0617 24.6796 24.001 24.6544C23.9403 24.6293 23.8852 24.5924 23.8388 24.5459L21.7178 22.4245C21.6702 22.3784 21.6322 22.3232 21.6062 22.2623C21.5801 22.2013 21.5664 22.1358 21.5659 22.0695C21.5654 22.0032 21.5781 21.9374 21.6032 21.8761C21.6284 21.8147 21.6655 21.759 21.7124 21.7121C21.7592 21.6652 21.815 21.6281 21.8763 21.603C21.9377 21.5779 22.0034 21.5652 22.0697 21.5657C22.136 21.5662 22.2016 21.5799 22.2625 21.606C22.3235 21.632 22.3786 21.67 22.4248 21.7176L24.5459 23.8389C24.6158 23.9088 24.6634 23.9979 24.6827 24.0948C24.702 24.1918 24.6921 24.2924 24.6543 24.3837C24.6165 24.4751 24.5524 24.5532 24.4702 24.6081C24.3879 24.6631 24.2913 24.6924 24.1924 24.6924Z" fill="#FFD36B"/>
<path d="M29.5 15.5H25C24.8674 15.5 24.7402 15.4473 24.6464 15.3536C24.5527 15.2598 24.5 15.1326 24.5 15C24.5 14.8674 24.5527 14.7402 24.6464 14.6464C24.7402 14.5527 24.8674 14.5 25 14.5H29.5C29.6326 14.5 29.7598 14.5527 29.8536 14.6464C29.9473 14.7402 30 14.8674 30 15C30 15.1326 29.9473 15.2598 29.8536 15.3536C29.7598 15.4473 29.6326 15.5 29.5 15.5Z" fill="#FFD36B"/>
<path d="M22.0713 8.42895C21.9724 8.42894 21.8758 8.39961 21.7936 8.34467C21.7113 8.28973 21.6473 8.21165 21.6094 8.1203C21.5716 8.02895 21.5617 7.92843 21.581 7.83145C21.6002 7.73447 21.6478 7.64538 21.7178 7.57545L23.8389 5.4541C23.933 5.36229 24.0596 5.31128 24.1911 5.31212C24.3226 5.31295 24.4485 5.36556 24.5414 5.45855C24.6344 5.55154 24.6871 5.67743 24.6879 5.80894C24.6887 5.94045 24.6377 6.06699 24.5459 6.16115L22.425 8.28245C22.3786 8.32899 22.3235 8.36589 22.2628 8.39103C22.2021 8.41617 22.137 8.42906 22.0713 8.42895Z" fill="#FFD36B"/>
</svg>
