<svg width="32" height="32" viewBox="0 0 32 32" fill="none" xmlns="http://www.w3.org/2000/svg">
<g clip-path="url(#clip0_16_6)">
<path d="M26.4828 10.9953V22.6593C26.4828 24.1617 25.2651 25.3793 23.7633 25.3793H12.1379L6.62069 31.4483V25.3793H2.71945C1.21766 25.3793 0 24.1617 0 22.6599V10.9959C0 9.49353 1.21766 8.27588 2.71945 8.27588H23.7628C25.2651 8.27588 26.4828 9.49353 26.4828 10.9953Z" fill="#FA9E66"/>
<path d="M29.2804 0.551727H8.23654C6.73475 0.551727 5.51709 1.76938 5.51709 3.27173V8.27587H23.7632C25.265 8.27587 26.4826 9.49352 26.4826 10.9959V17.6552H29.2804C30.7822 17.6552 31.9998 16.4375 31.9998 14.9352V3.27173C31.9998 1.76938 30.7822 0.551727 29.2804 0.551727Z" fill="#9CDB31"/>
<path d="M13.793 14.3531H6.06881C5.76371 14.3531 5.51709 14.1059 5.51709 13.8014C5.51709 13.4968 5.76371 13.2497 6.06881 13.2497H13.793C14.0981 13.2497 14.3447 13.4968 14.3447 13.8014C14.3447 14.1059 14.0981 14.3531 13.793 14.3531Z" fill="white"/>
<path d="M20.9654 17.6634H6.06881C5.76371 17.6634 5.51709 17.4163 5.51709 17.1117C5.51709 16.8072 5.76371 16.56 6.06881 16.56H20.9654C21.2705 16.56 21.5171 16.8072 21.5171 17.1117C21.5171 17.4163 21.2705 17.6634 20.9654 17.6634Z" fill="white"/>
<path d="M20.9654 20.9738H6.06881C5.76371 20.9738 5.51709 20.7266 5.51709 20.4221C5.51709 20.1175 5.76371 19.8704 6.06881 19.8704H20.9654C21.2705 19.8704 21.5171 20.1175 21.5171 20.4221C21.5171 20.7266 21.2705 20.9738 20.9654 20.9738Z" fill="white"/>
</g>
<defs>
<clipPath id="clip0_16_6">
<rect width="32" height="32" fill="white"/>
</clipPath>
</defs>
</svg>
