<svg width="15" height="27" viewBox="0 0 15 27" fill="none" xmlns="http://www.w3.org/2000/svg">
<path d="M7.48969 26.5284L0.951179 26.3891C0.757639 26.385 0.573664 26.3041 0.439726 26.1644C0.305789 26.0246 0.232859 25.8373 0.236982 25.6438L0.756583 1.25573C0.760707 1.06219 0.841546 0.878213 0.981315 0.744275C1.12108 0.610337 1.30834 0.537409 1.50188 0.541532L8.04039 0.680839L7.48969 26.5284Z" fill="#FFD36B"/>
<path d="M7.57009 26.5302L6.68345 26.5113L7.23415 0.663712L8.12079 0.682603C8.31433 0.686726 8.4983 0.767566 8.63224 0.907335C8.76618 1.0471 8.83911 1.23435 8.83498 1.42789L8.31538 25.816C8.31334 25.9118 8.29244 26.0063 8.25388 26.094C8.21532 26.1818 8.15986 26.2611 8.09065 26.3274C7.95088 26.4614 7.76363 26.5343 7.57009 26.5302Z" fill="#6AAC96"/>
<path d="M8.32598 25.1326L8.33461 24.7276L5.10184 24.6587L5.09321 25.0637L8.32598 25.1326Z" fill="black"/>
<path d="M8.36322 23.5176L8.37185 23.1126L5.9491 23.061L5.94047 23.466L8.36322 23.5176Z" fill="black"/>
<path d="M8.39658 21.9042L8.40521 21.4992L5.17244 21.4303L5.16381 21.8353L8.39658 21.9042Z" fill="black"/>
<path d="M8.43381 20.2893L8.44244 19.8843L6.01969 19.8326L6.01106 20.2377L8.43381 20.2893Z" fill="black"/>
<path d="M8.46728 18.6707L8.47591 18.2657L5.24314 18.1968L5.23451 18.6018L8.46728 18.6707Z" fill="black"/>
<path d="M8.50196 17.0546L8.51059 16.6496L6.08784 16.598L6.07921 17.003L8.50196 17.0546Z" fill="black"/>
<path d="M8.53535 15.4397L8.54398 15.0347L5.31121 14.9658L5.30258 15.3708L8.53535 15.4397Z" fill="black"/>
<path d="M8.56638 13.8236L8.57501 13.4186L6.15226 13.3669L6.14363 13.7719L8.56638 13.8236Z" fill="black"/>
<path d="M8.60602 12.2077L8.61465 11.8027L5.38188 11.7338L5.37326 12.1388L8.60602 12.2077Z" fill="black"/>
<path d="M8.63961 10.5927L8.64824 10.1877L6.22549 10.1361L6.21686 10.5411L8.63961 10.5927Z" fill="black"/>
<path d="M8.67409 8.9767L8.68272 8.5717L5.44995 8.50282L5.44133 8.90783L8.67409 8.9767Z" fill="black"/>
<path d="M8.70768 7.36169L8.71631 6.95669L6.29356 6.90507L6.28493 7.31008L8.70768 7.36169Z" fill="black"/>
<path d="M8.74469 5.74835L8.75332 5.34334L5.52055 5.27447L5.51192 5.67947L8.74469 5.74835Z" fill="black"/>
<path d="M8.77828 4.13334L8.78691 3.72833L6.36415 3.67671L6.35553 4.08172L8.77828 4.13334Z" fill="black"/>
<path d="M8.80911 2.51728L8.81774 2.11227L5.58497 2.0434L5.57634 2.44841L8.80911 2.51728Z" fill="black"/>
<path d="M12.129 7.34816L10.65 8.74383C10.5034 8.88216 10.2724 8.87547 10.1341 8.72887C9.99577 8.58228 10.0025 8.3513 10.1491 8.21296L12.2725 6.20916C12.4191 6.07082 12.6501 6.07752 12.7884 6.22411L14.7922 8.34757C14.9306 8.49416 14.9239 8.72514 14.7773 8.86348C14.6307 9.00181 14.3997 8.99511 14.2614 8.84852L12.8588 7.36223L12.7517 11.0585C12.7458 11.2616 12.5777 11.4209 12.3762 11.4151C12.1733 11.4092 12.0162 11.2401 12.0221 11.0374L12.129 7.34816ZM13.9447 19.6653C14.0913 19.527 14.3222 19.5337 14.4606 19.6803C14.5989 19.8268 14.5922 20.0578 14.4456 20.1962L12.3222 22.2C12.1756 22.3383 11.9446 22.3316 11.8063 22.185L9.80245 20.0616C9.66411 19.915 9.67081 19.684 9.8174 19.5457C9.964 19.4073 10.195 19.414 10.3333 19.5606L11.7359 21.0469L11.843 17.3506C11.8489 17.1475 12.017 16.9882 12.2185 16.9941C12.4213 17 12.5785 17.169 12.5726 17.3717L12.4657 21.061L13.9447 19.6653Z" fill="#F2AB5A"/>
</svg>
