<svg width="117" height="24" viewBox="0 0 117 24" fill="none" xmlns="http://www.w3.org/2000/svg">
<path d="M4.75204 21.112C4.75204 22.5413 4.00538 23.256 2.51204 23.256C1.78671 23.256 1.21071 23.0747 0.784043 22.712C0.357376 22.3493 0.144043 21.816 0.144043 21.112V7.44799C0.144043 5.05865 0.773376 3.26665 2.03204 2.07199C3.29071 0.855986 5.40271 0.247986 8.36804 0.247986C10.5654 0.247986 12.2827 0.834653 13.52 2.00799C14.7787 3.18132 15.408 5.06932 15.408 7.67199C15.408 9.93332 14.8107 11.6613 13.616 12.856C12.4427 14.0507 10.7787 14.648 8.62404 14.648C7.40804 14.648 6.52271 14.744 5.96804 14.936C5.43471 15.1067 5.09338 15.4373 4.94404 15.928C4.81604 16.3973 4.75204 17.0907 4.75204 18.008V21.112ZM4.46404 11.864C4.72004 11.6507 4.96538 11.4693 5.20004 11.32C5.43471 11.1493 5.74404 11.0213 6.12804 10.936C6.53338 10.8293 7.06671 10.776 7.72804 10.776C8.64538 10.776 9.37071 10.7013 9.90404 10.552C10.4374 10.3813 10.8107 10.072 11.024 9.62399C11.2587 9.17599 11.376 8.52532 11.376 7.67199C11.376 6.54132 11.2374 5.71999 10.96 5.20798C10.704 4.67465 10.3307 4.33332 9.84004 4.18399C9.37071 4.01332 8.79471 3.92799 8.11204 3.92799C6.87471 3.92799 6.00004 4.15199 5.48804 4.59999C4.99738 5.04799 4.75204 5.82665 4.75204 6.93599C4.75204 7.72532 4.73071 8.58932 4.68804 9.52799C4.64538 10.4667 4.57071 11.2453 4.46404 11.864Z" fill="#31374D"/>
<path d="M21.4043 23C19.8683 23 19.1003 22.168 19.1003 20.504V2.74399C19.1003 1.07999 19.8683 0.247986 21.4043 0.247986C22.9403 0.247986 23.7083 1.07999 23.7083 2.74399V16.952C23.7083 17.2933 23.6763 17.7307 23.6123 18.264C23.5696 18.776 23.5163 19.2027 23.4523 19.544C24.007 18.8827 24.6896 18.552 25.5003 18.552H30.2043C30.9936 18.552 31.6016 18.744 32.0283 19.128C32.455 19.512 32.6683 20.0667 32.6683 20.792C32.6683 22.264 31.847 23 30.2043 23H21.4043Z" fill="#31374D"/>
<path d="M39.6258 21.112C39.6258 22.5413 38.8791 23.256 37.3858 23.256C36.6605 23.256 36.0845 23.0747 35.6578 22.712C35.2311 22.3493 35.0178 21.816 35.0178 21.112V8.43999C35.0178 5.49599 35.6151 3.39465 36.8098 2.13599C38.0045 0.877319 39.8711 0.247986 42.4098 0.247986C45.0125 0.247986 46.9325 0.887986 48.1698 2.16799C49.4071 3.44799 50.0258 5.53865 50.0258 8.43999V21.112C50.0258 22.5413 49.2791 23.256 47.7858 23.256C47.0605 23.256 46.4845 23.0747 46.0578 22.712C45.6311 22.3493 45.4178 21.816 45.4178 21.112V13.4C45.0125 13.7627 44.5645 14.072 44.0738 14.328C43.6045 14.584 43.0498 14.712 42.4098 14.712C41.4711 14.712 40.7671 14.8827 40.2978 15.224C39.8498 15.5653 39.6258 16.1733 39.6258 17.048V21.112ZM39.4338 11.736C39.7751 11.3947 40.1805 11.128 40.6498 10.936C41.1405 10.744 41.7271 10.648 42.4098 10.648C43.2205 10.648 43.8391 10.584 44.2658 10.456C44.7138 10.328 45.0231 10.0827 45.1938 9.71999C45.3645 9.35732 45.4498 8.82399 45.4498 8.11999C45.4498 6.54132 45.2258 5.46399 44.7778 4.88799C44.3298 4.29065 43.5298 3.99199 42.3778 3.99199C41.3111 3.99199 40.5751 4.30132 40.1698 4.91999C39.7858 5.51732 39.5938 6.62665 39.5938 8.24799C39.5938 9.07999 39.5831 9.78399 39.5618 10.36C39.5405 10.936 39.4978 11.3947 39.4338 11.736Z" fill="#31374D"/>
<path d="M59.547 21.112C59.547 22.5413 58.8004 23.256 57.307 23.256C56.5817 23.256 56.0057 23.0747 55.579 22.712C55.1524 22.3493 54.939 21.816 54.939 21.112V8.53599C54.939 6.53065 55.2057 4.93065 55.739 3.73598C56.2724 2.51999 57.147 1.63465 58.363 1.07998C59.579 0.525319 61.2004 0.247986 63.227 0.247986C65.915 0.247986 67.9417 0.877319 69.307 2.13599C70.6937 3.37332 71.387 5.50665 71.387 8.53599V21.112C71.387 22.5413 70.6404 23.256 69.147 23.256C68.4217 23.256 67.8457 23.0747 67.419 22.712C66.9924 22.3493 66.779 21.816 66.779 21.112V8.53599C66.779 6.95732 66.5017 5.83732 65.947 5.17599C65.4137 4.49332 64.507 4.15199 63.227 4.15199C62.2244 4.15199 61.4564 4.30132 60.923 4.59999C60.3897 4.89865 60.027 5.36799 59.835 6.00799C59.643 6.64799 59.547 7.49065 59.547 8.53599V21.112Z" fill="#31374D"/>
<path d="M81.706 23.256C81.1727 23.256 80.6287 23.1387 80.074 22.904C79.5407 22.648 79.274 22.2427 79.274 21.688V6.71199C79.274 6.02932 79.4447 5.55999 79.786 5.30399C80.1274 5.04799 80.4047 4.88799 80.618 4.82399H74.442C73.93 4.82399 73.546 4.59999 73.29 4.15199C73.0554 3.68265 72.938 3.20265 72.938 2.71199C72.938 2.17865 73.066 1.69865 73.322 1.27199C73.578 0.823985 73.9514 0.599985 74.442 0.599985H88.746C89.2367 0.599985 89.61 0.823985 89.866 1.27199C90.122 1.69865 90.25 2.17865 90.25 2.71199C90.25 3.20265 90.122 3.68265 89.866 4.15199C89.6314 4.59999 89.258 4.82399 88.746 4.82399H83.882V21.688C83.882 22.2213 83.658 22.616 83.21 22.872C82.7834 23.128 82.282 23.256 81.706 23.256Z" fill="#31374D"/>
<path d="M96.4833 21.112C96.4833 22.5413 95.7366 23.256 94.2433 23.256C93.518 23.256 92.942 23.0747 92.5153 22.712C92.0886 22.3493 91.8753 21.816 91.8753 21.112V8.43999C91.8753 5.49599 92.4726 3.39465 93.6673 2.13599C94.862 0.877319 96.7286 0.247986 99.2673 0.247986C101.87 0.247986 103.79 0.887986 105.027 2.16799C106.265 3.44799 106.883 5.53865 106.883 8.43999V21.112C106.883 22.5413 106.137 23.256 104.643 23.256C103.918 23.256 103.342 23.0747 102.915 22.712C102.489 22.3493 102.275 21.816 102.275 21.112V13.4C101.87 13.7627 101.422 14.072 100.931 14.328C100.462 14.584 99.9073 14.712 99.2673 14.712C98.3286 14.712 97.6246 14.8827 97.1553 15.224C96.7073 15.5653 96.4833 16.1733 96.4833 17.048V21.112ZM96.2913 11.736C96.6326 11.3947 97.038 11.128 97.5073 10.936C97.998 10.744 98.5846 10.648 99.2673 10.648C100.078 10.648 100.697 10.584 101.123 10.456C101.571 10.328 101.881 10.0827 102.051 9.71999C102.222 9.35732 102.307 8.82399 102.307 8.11999C102.307 6.54132 102.083 5.46399 101.635 4.88799C101.187 4.29065 100.387 3.99199 99.2353 3.99199C98.1686 3.99199 97.4326 4.30132 97.0273 4.91999C96.6433 5.51732 96.4513 6.62665 96.4513 8.24799C96.4513 9.07999 96.4406 9.78399 96.4193 10.36C96.398 10.936 96.3553 11.3947 96.2913 11.736Z" fill="#31374D"/>
<path d="M114.231 23.256C112.652 23.256 111.863 22.5413 111.863 21.112V2.39198C111.863 1.64532 112.044 1.10132 112.407 0.759985C112.769 0.418652 113.345 0.247986 114.135 0.247986C115.692 0.247986 116.471 0.962652 116.471 2.39198V21.112C116.471 21.8373 116.289 22.3813 115.927 22.744C115.585 23.0853 115.02 23.256 114.231 23.256Z" fill="#31374D"/>
</svg>
